<svg xmlns="http://www.w3.org/2000/svg" viewBox="0 0 240 160" role="img" aria-label="SW-420 vibration sensor module: a blue board with a trimmer, a comparator chip, the vibration switch and a three-pin header">
  <rect width="240" height="160" rx="14" fill="#EEF3F3"/>
  <ellipse cx="118" cy="132" rx="84" ry="7" fill="#14222B" opacity=".12"/>
  <rect x="34" y="40" width="152" height="84" rx="5" fill="#1F5FA8"/>
  <circle cx="52" cy="58" r="7" fill="#EEF3F3"/><circle cx="52" cy="58" r="9" fill="none" stroke="#C9A646" stroke-width="2"/>
  <rect x="44" y="82" width="34" height="30" rx="3" fill="#2E7AD1"/>
  <circle cx="61" cy="97" r="9" fill="#D8B45A"/><path d="M55 97 H67 M61 91 V103" stroke="#8C6E25" stroke-width="2"/>
  <rect x="92" y="62" width="30" height="22" rx="2" fill="#1B1F23"/>
  <g stroke="#B8C0C6" stroke-width="2"><path d="M96 62 V57 M103 62 V57 M110 62 V57 M117 62 V57 M96 84 V89 M103 84 V89 M110 84 V89 M117 84 V89"/></g>
  <rect x="90" y="96" width="44" height="16" rx="8" fill="#C7CED3"/><rect x="90" y="96" width="44" height="6" rx="3" fill="#E3E7EA"/>
  <circle cx="148" cy="56" r="4" fill="#E2463B"/><circle cx="160" cy="56" r="4" fill="#3DBE5C"/>
  <rect x="164" y="66" width="14" height="44" rx="2" fill="#1B1F23"/>
  <g stroke="#C9A646" stroke-width="3" stroke-linecap="round"><path d="M178 74 H212 M178 88 H212 M178 102 H212"/></g>
</svg>
